<mxfile host="app.diagrams.net" modified="2023-12-01T12:44:23.173Z" agent="Mozilla/5.0 (Windows NT 10.0; Win64; x64) AppleWebKit/537.36 (KHTML, like Gecko) Chrome/119.0.0.0 Safari/537.36" etag="LEOygZaYuEQYuO0JtDAM" version="22.1.5" type="device">
  <diagram name="Sida-1" id="uA0Vbr96SRg69AaIN0WN">
    <mxGraphModel dx="3215" dy="2287" grid="1" gridSize="10" guides="1" tooltips="1" connect="1" arrows="1" fold="1" page="1" pageScale="1" pageWidth="827" pageHeight="1169" math="0" shadow="0">
      <root>
        <mxCell id="0" />
        <mxCell id="1" parent="0" />
        <mxCell id="_IKKTvD2-Kq94dH4sCkM-1" value="MotorVehicle" style="swimlane;fontStyle=1;align=center;verticalAlign=top;childLayout=stackLayout;horizontal=1;startSize=26;horizontalStack=0;resizeParent=1;resizeParentMax=0;resizeLast=0;collapsible=1;marginBottom=0;whiteSpace=wrap;html=1;" parent="1" vertex="1">
          <mxGeometry x="220" y="80" width="160" height="200" as="geometry" />
        </mxCell>
        <mxCell id="_IKKTvD2-Kq94dH4sCkM-2" value="- direction : Directions&lt;br&gt;- currentSpeed : double&lt;br&gt;- x : double&lt;br&gt;- y : double&lt;br&gt;- active : boolean&lt;br&gt;- size() : int" style="text;strokeColor=none;fillColor=none;align=left;verticalAlign=top;spacingLeft=4;spacingRight=4;overflow=hidden;rotatable=0;points=[[0,0.5],[1,0.5]];portConstraint=eastwest;whiteSpace=wrap;html=1;" parent="_IKKTvD2-Kq94dH4sCkM-1" vertex="1">
          <mxGeometry y="26" width="160" height="94" as="geometry" />
        </mxCell>
        <mxCell id="_IKKTvD2-Kq94dH4sCkM-3" value="" style="line;strokeWidth=1;fillColor=none;align=left;verticalAlign=middle;spacingTop=-1;spacingLeft=3;spacingRight=3;rotatable=0;labelPosition=right;points=[];portConstraint=eastwest;strokeColor=inherit;" parent="_IKKTvD2-Kq94dH4sCkM-1" vertex="1">
          <mxGeometry y="120" width="160" height="10" as="geometry" />
        </mxCell>
        <mxCell id="_IKKTvD2-Kq94dH4sCkM-4" value="+ gas(double) : void&lt;br&gt;+ brake(double) : void&lt;br&gt;+ stopEngine()&lt;br&gt;+ startEngine()" style="text;strokeColor=none;fillColor=none;align=left;verticalAlign=top;spacingLeft=4;spacingRight=4;overflow=hidden;rotatable=0;points=[[0,0.5],[1,0.5]];portConstraint=eastwest;whiteSpace=wrap;html=1;" parent="_IKKTvD2-Kq94dH4sCkM-1" vertex="1">
          <mxGeometry y="130" width="160" height="70" as="geometry" />
        </mxCell>
        <mxCell id="_IKKTvD2-Kq94dH4sCkM-5" value="&lt;p style=&quot;margin:0px;margin-top:4px;text-align:center;&quot;&gt;&lt;i&gt;&amp;lt;&amp;lt;Interface&amp;gt;&amp;gt;&lt;/i&gt;&lt;br&gt;&lt;b&gt;Movable&lt;/b&gt;&lt;/p&gt;&lt;hr size=&quot;1&quot;&gt;&lt;p style=&quot;margin:0px;margin-left:4px;&quot;&gt;+ move() : void&lt;/p&gt;" style="verticalAlign=top;align=left;overflow=fill;fontSize=12;fontFamily=Helvetica;html=1;whiteSpace=wrap;" parent="1" vertex="1">
          <mxGeometry x="110" y="-50" width="190" height="70" as="geometry" />
        </mxCell>
        <mxCell id="_IKKTvD2-Kq94dH4sCkM-6" value="&lt;p style=&quot;margin:0px;margin-top:4px;text-align:center;&quot;&gt;&lt;i&gt;&amp;lt;&amp;lt;Interface&amp;gt;&amp;gt;&lt;/i&gt;&lt;br&gt;&lt;b&gt;Loadable&lt;/b&gt;&lt;/p&gt;&lt;hr size=&quot;1&quot;&gt;&lt;p style=&quot;margin:0px;margin-left:4px;&quot;&gt;+ getSize() : int&lt;/p&gt;" style="verticalAlign=top;align=left;overflow=fill;fontSize=12;fontFamily=Helvetica;html=1;whiteSpace=wrap;" parent="1" vertex="1">
          <mxGeometry x="330" y="-50" width="190" height="70" as="geometry" />
        </mxCell>
        <mxCell id="_IKKTvD2-Kq94dH4sCkM-7" value="" style="endArrow=block;dashed=1;endFill=0;endSize=12;html=1;rounded=0;entryX=0.25;entryY=1;entryDx=0;entryDy=0;exitX=0.5;exitY=0;exitDx=0;exitDy=0;strokeColor=#000000;" parent="1" source="_IKKTvD2-Kq94dH4sCkM-1" target="_IKKTvD2-Kq94dH4sCkM-6" edge="1">
          <mxGeometry width="160" relative="1" as="geometry">
            <mxPoint x="330" y="190" as="sourcePoint" />
            <mxPoint x="490" y="190" as="targetPoint" />
          </mxGeometry>
        </mxCell>
        <mxCell id="_IKKTvD2-Kq94dH4sCkM-8" value="" style="endArrow=block;dashed=1;endFill=0;endSize=12;html=1;rounded=0;entryX=0.5;entryY=1;entryDx=0;entryDy=0;exitX=0.5;exitY=0;exitDx=0;exitDy=0;strokeColor=#000000;" parent="1" source="_IKKTvD2-Kq94dH4sCkM-1" target="_IKKTvD2-Kq94dH4sCkM-5" edge="1">
          <mxGeometry width="160" relative="1" as="geometry">
            <mxPoint x="330" y="190" as="sourcePoint" />
            <mxPoint x="490" y="190" as="targetPoint" />
          </mxGeometry>
        </mxCell>
        <mxCell id="_IKKTvD2-Kq94dH4sCkM-10" value="&lt;i&gt;&amp;lt;&amp;lt;Enumerator&amp;gt;&amp;gt;&lt;br&gt;Directions&lt;br&gt;&lt;/i&gt;" style="swimlane;fontStyle=0;childLayout=stackLayout;horizontal=1;startSize=26;fillColor=none;horizontalStack=0;resizeParent=1;resizeParentMax=0;resizeLast=0;collapsible=1;marginBottom=0;whiteSpace=wrap;html=1;" parent="1" vertex="1">
          <mxGeometry x="560" y="-50" width="140" height="90" as="geometry" />
        </mxCell>
        <mxCell id="_IKKTvD2-Kq94dH4sCkM-11" value="NORTH&lt;br&gt;WEST&lt;br&gt;SOUTH&lt;br&gt;EAST" style="text;strokeColor=none;fillColor=none;align=left;verticalAlign=top;spacingLeft=4;spacingRight=4;overflow=hidden;rotatable=0;points=[[0,0.5],[1,0.5]];portConstraint=eastwest;whiteSpace=wrap;html=1;" parent="_IKKTvD2-Kq94dH4sCkM-10" vertex="1">
          <mxGeometry y="26" width="140" height="64" as="geometry" />
        </mxCell>
        <mxCell id="_IKKTvD2-Kq94dH4sCkM-14" value="Use" style="endArrow=open;endSize=12;dashed=1;html=1;rounded=0;entryX=-0.004;entryY=1.016;entryDx=0;entryDy=0;entryPerimeter=0;exitX=1;exitY=0.5;exitDx=0;exitDy=0;strokeColor=#000000;" parent="1" source="_IKKTvD2-Kq94dH4sCkM-2" target="_IKKTvD2-Kq94dH4sCkM-11" edge="1">
          <mxGeometry width="160" relative="1" as="geometry">
            <mxPoint x="330" y="90" as="sourcePoint" />
            <mxPoint x="490" y="90" as="targetPoint" />
          </mxGeometry>
        </mxCell>
        <mxCell id="_IKKTvD2-Kq94dH4sCkM-19" value="&lt;b&gt;Car&lt;/b&gt;" style="html=1;whiteSpace=wrap;" parent="1" vertex="1">
          <mxGeometry x="-50" y="475" width="110" height="50" as="geometry" />
        </mxCell>
        <mxCell id="_IKKTvD2-Kq94dH4sCkM-20" value="Volvo240" style="swimlane;fontStyle=1;align=center;verticalAlign=top;childLayout=stackLayout;horizontal=1;startSize=26;horizontalStack=0;resizeParent=1;resizeParentMax=0;resizeLast=0;collapsible=1;marginBottom=0;whiteSpace=wrap;html=1;" parent="1" vertex="1">
          <mxGeometry x="-260" y="738" width="160" height="86" as="geometry" />
        </mxCell>
        <mxCell id="_IKKTvD2-Kq94dH4sCkM-21" value="- trimFactor : double" style="text;strokeColor=none;fillColor=none;align=left;verticalAlign=top;spacingLeft=4;spacingRight=4;overflow=hidden;rotatable=0;points=[[0,0.5],[1,0.5]];portConstraint=eastwest;whiteSpace=wrap;html=1;" parent="_IKKTvD2-Kq94dH4sCkM-20" vertex="1">
          <mxGeometry y="26" width="160" height="26" as="geometry" />
        </mxCell>
        <mxCell id="_IKKTvD2-Kq94dH4sCkM-22" value="" style="line;strokeWidth=1;fillColor=none;align=left;verticalAlign=middle;spacingTop=-1;spacingLeft=3;spacingRight=3;rotatable=0;labelPosition=right;points=[];portConstraint=eastwest;strokeColor=inherit;" parent="_IKKTvD2-Kq94dH4sCkM-20" vertex="1">
          <mxGeometry y="52" width="160" height="8" as="geometry" />
        </mxCell>
        <mxCell id="_IKKTvD2-Kq94dH4sCkM-23" value="# speedFactor() : double" style="text;strokeColor=none;fillColor=none;align=left;verticalAlign=top;spacingLeft=4;spacingRight=4;overflow=hidden;rotatable=0;points=[[0,0.5],[1,0.5]];portConstraint=eastwest;whiteSpace=wrap;html=1;" parent="_IKKTvD2-Kq94dH4sCkM-20" vertex="1">
          <mxGeometry y="60" width="160" height="26" as="geometry" />
        </mxCell>
        <mxCell id="_IKKTvD2-Kq94dH4sCkM-24" value="Saab95" style="swimlane;fontStyle=1;align=center;verticalAlign=top;childLayout=stackLayout;horizontal=1;startSize=26;horizontalStack=0;resizeParent=1;resizeParentMax=0;resizeLast=0;collapsible=1;marginBottom=0;whiteSpace=wrap;html=1;" parent="1" vertex="1">
          <mxGeometry x="50" y="738" width="160" height="110" as="geometry" />
        </mxCell>
        <mxCell id="_IKKTvD2-Kq94dH4sCkM-25" value="- turboOn : boolean" style="text;strokeColor=none;fillColor=none;align=left;verticalAlign=top;spacingLeft=4;spacingRight=4;overflow=hidden;rotatable=0;points=[[0,0.5],[1,0.5]];portConstraint=eastwest;whiteSpace=wrap;html=1;" parent="_IKKTvD2-Kq94dH4sCkM-24" vertex="1">
          <mxGeometry y="26" width="160" height="26" as="geometry" />
        </mxCell>
        <mxCell id="_IKKTvD2-Kq94dH4sCkM-26" value="" style="line;strokeWidth=1;fillColor=none;align=left;verticalAlign=middle;spacingTop=-1;spacingLeft=3;spacingRight=3;rotatable=0;labelPosition=right;points=[];portConstraint=eastwest;strokeColor=inherit;" parent="_IKKTvD2-Kq94dH4sCkM-24" vertex="1">
          <mxGeometry y="52" width="160" height="8" as="geometry" />
        </mxCell>
        <mxCell id="_IKKTvD2-Kq94dH4sCkM-27" value="+ setTurboOn() : void&lt;br&gt;+ setTurboOff() : void&lt;br&gt;# speedFactor() : double" style="text;strokeColor=none;fillColor=none;align=left;verticalAlign=top;spacingLeft=4;spacingRight=4;overflow=hidden;rotatable=0;points=[[0,0.5],[1,0.5]];portConstraint=eastwest;whiteSpace=wrap;html=1;" parent="_IKKTvD2-Kq94dH4sCkM-24" vertex="1">
          <mxGeometry y="60" width="160" height="50" as="geometry" />
        </mxCell>
        <mxCell id="_IKKTvD2-Kq94dH4sCkM-28" value="Extends" style="endArrow=block;endSize=16;endFill=0;html=1;rounded=0;exitX=1;exitY=0;exitDx=0;exitDy=0;entryX=0.5;entryY=1;entryDx=0;entryDy=0;strokeColor=#000000;" parent="1" source="_IKKTvD2-Kq94dH4sCkM-20" target="_IKKTvD2-Kq94dH4sCkM-19" edge="1">
          <mxGeometry width="160" relative="1" as="geometry">
            <mxPoint x="80" y="475" as="sourcePoint" />
            <mxPoint x="240" y="475" as="targetPoint" />
          </mxGeometry>
        </mxCell>
        <mxCell id="_IKKTvD2-Kq94dH4sCkM-29" value="Extends" style="endArrow=block;endSize=16;endFill=0;html=1;rounded=0;exitX=0;exitY=0;exitDx=0;exitDy=0;entryX=0.5;entryY=1;entryDx=0;entryDy=0;strokeColor=#000000;" parent="1" source="_IKKTvD2-Kq94dH4sCkM-24" target="_IKKTvD2-Kq94dH4sCkM-19" edge="1">
          <mxGeometry width="160" relative="1" as="geometry">
            <mxPoint x="80" y="475" as="sourcePoint" />
            <mxPoint x="240" y="475" as="targetPoint" />
          </mxGeometry>
        </mxCell>
        <mxCell id="_IKKTvD2-Kq94dH4sCkM-31" value="Extends" style="endArrow=block;endSize=16;endFill=0;html=1;rounded=0;exitX=1;exitY=0;exitDx=0;exitDy=0;entryX=0.003;entryY=1.014;entryDx=0;entryDy=0;entryPerimeter=0;strokeColor=#000000;" parent="1" source="_IKKTvD2-Kq94dH4sCkM-19" target="_IKKTvD2-Kq94dH4sCkM-4" edge="1">
          <mxGeometry width="160" relative="1" as="geometry">
            <mxPoint x="100" y="390" as="sourcePoint" />
            <mxPoint x="260" y="390" as="targetPoint" />
          </mxGeometry>
        </mxCell>
        <mxCell id="_IKKTvD2-Kq94dH4sCkM-36" value="Extends" style="endArrow=block;endSize=16;endFill=0;html=1;rounded=0;exitX=0.5;exitY=0;exitDx=0;exitDy=0;entryX=0.528;entryY=1.042;entryDx=0;entryDy=0;entryPerimeter=0;strokeColor=#000000;" parent="1" source="_IKKTvD2-Kq94dH4sCkM-37" target="_IKKTvD2-Kq94dH4sCkM-4" edge="1">
          <mxGeometry width="160" relative="1" as="geometry">
            <mxPoint x="425" y="390" as="sourcePoint" />
            <mxPoint x="570" y="470" as="targetPoint" />
          </mxGeometry>
        </mxCell>
        <mxCell id="_IKKTvD2-Kq94dH4sCkM-37" value="&lt;b&gt;PlatformVehicle&lt;/b&gt;" style="swimlane;fontStyle=0;childLayout=stackLayout;horizontal=1;startSize=26;fillColor=none;horizontalStack=0;resizeParent=1;resizeParentMax=0;resizeLast=0;collapsible=1;marginBottom=0;whiteSpace=wrap;html=1;" parent="1" vertex="1">
          <mxGeometry x="275" y="738" width="140" height="52" as="geometry" />
        </mxCell>
        <mxCell id="_IKKTvD2-Kq94dH4sCkM-38" value="- platformAngle : double" style="text;strokeColor=none;fillColor=none;align=left;verticalAlign=top;spacingLeft=4;spacingRight=4;overflow=hidden;rotatable=0;points=[[0,0.5],[1,0.5]];portConstraint=eastwest;whiteSpace=wrap;html=1;" parent="_IKKTvD2-Kq94dH4sCkM-37" vertex="1">
          <mxGeometry y="26" width="140" height="26" as="geometry" />
        </mxCell>
        <mxCell id="_IKKTvD2-Kq94dH4sCkM-41" value="&lt;b&gt;Scania&lt;/b&gt;" style="swimlane;fontStyle=0;childLayout=stackLayout;horizontal=1;startSize=26;fillColor=none;horizontalStack=0;resizeParent=1;resizeParentMax=0;resizeLast=0;collapsible=1;marginBottom=0;whiteSpace=wrap;html=1;" parent="1" vertex="1">
          <mxGeometry x="270" y="838" width="170" height="78" as="geometry" />
        </mxCell>
        <mxCell id="_IKKTvD2-Kq94dH4sCkM-42" value="+ tiltPlatform(double) : void" style="text;strokeColor=none;fillColor=none;align=left;verticalAlign=top;spacingLeft=4;spacingRight=4;overflow=hidden;rotatable=0;points=[[0,0.5],[1,0.5]];portConstraint=eastwest;whiteSpace=wrap;html=1;" parent="_IKKTvD2-Kq94dH4sCkM-41" vertex="1">
          <mxGeometry y="26" width="170" height="26" as="geometry" />
        </mxCell>
        <mxCell id="_IKKTvD2-Kq94dH4sCkM-43" value="# speedFactor() : double" style="text;strokeColor=none;fillColor=none;align=left;verticalAlign=top;spacingLeft=4;spacingRight=4;overflow=hidden;rotatable=0;points=[[0,0.5],[1,0.5]];portConstraint=eastwest;whiteSpace=wrap;html=1;" parent="_IKKTvD2-Kq94dH4sCkM-41" vertex="1">
          <mxGeometry y="52" width="170" height="26" as="geometry" />
        </mxCell>
        <mxCell id="_IKKTvD2-Kq94dH4sCkM-46" value="Semitruck" style="swimlane;fontStyle=1;align=center;verticalAlign=top;childLayout=stackLayout;horizontal=1;startSize=26;horizontalStack=0;resizeParent=1;resizeParentMax=0;resizeLast=0;collapsible=1;marginBottom=0;whiteSpace=wrap;html=1;" parent="1" vertex="1">
          <mxGeometry x="690" y="590" width="160" height="130" as="geometry" />
        </mxCell>
        <mxCell id="_IKKTvD2-Kq94dH4sCkM-47" value="- maxSize : int&lt;br&gt;- capacity : int&lt;br&gt;- loaded : Arraylist&amp;lt;Car&amp;gt;" style="text;strokeColor=none;fillColor=none;align=left;verticalAlign=top;spacingLeft=4;spacingRight=4;overflow=hidden;rotatable=0;points=[[0,0.5],[1,0.5]];portConstraint=eastwest;whiteSpace=wrap;html=1;" parent="_IKKTvD2-Kq94dH4sCkM-46" vertex="1">
          <mxGeometry y="26" width="160" height="54" as="geometry" />
        </mxCell>
        <mxCell id="_IKKTvD2-Kq94dH4sCkM-48" value="" style="line;strokeWidth=1;fillColor=none;align=left;verticalAlign=middle;spacingTop=-1;spacingLeft=3;spacingRight=3;rotatable=0;labelPosition=right;points=[];portConstraint=eastwest;strokeColor=inherit;" parent="_IKKTvD2-Kq94dH4sCkM-46" vertex="1">
          <mxGeometry y="80" width="160" height="8" as="geometry" />
        </mxCell>
        <mxCell id="_IKKTvD2-Kq94dH4sCkM-49" value="+ load(Car) : void&lt;br&gt;+ unload(Car) : void" style="text;strokeColor=none;fillColor=none;align=left;verticalAlign=top;spacingLeft=4;spacingRight=4;overflow=hidden;rotatable=0;points=[[0,0.5],[1,0.5]];portConstraint=eastwest;whiteSpace=wrap;html=1;" parent="_IKKTvD2-Kq94dH4sCkM-46" vertex="1">
          <mxGeometry y="88" width="160" height="42" as="geometry" />
        </mxCell>
        <mxCell id="GvxSRBtj386_9GLS7rXv-1" value="Extends" style="endArrow=block;endSize=16;endFill=0;html=1;rounded=0;exitX=0.5;exitY=0;exitDx=0;exitDy=0;entryX=1;entryY=0.5;entryDx=0;entryDy=0;strokeColor=#000000;" parent="1" source="_IKKTvD2-Kq94dH4sCkM-46" target="_IKKTvD2-Kq94dH4sCkM-4" edge="1">
          <mxGeometry width="160" relative="1" as="geometry">
            <mxPoint x="640" y="300" as="sourcePoint" />
            <mxPoint x="800" y="300" as="targetPoint" />
          </mxGeometry>
        </mxCell>
        <mxCell id="GvxSRBtj386_9GLS7rXv-3" value="Extends" style="endArrow=block;endSize=16;endFill=0;html=1;rounded=0;exitX=0.5;exitY=0;exitDx=0;exitDy=0;entryX=0.517;entryY=1.118;entryDx=0;entryDy=0;entryPerimeter=0;strokeColor=#000000;" parent="1" source="_IKKTvD2-Kq94dH4sCkM-41" target="_IKKTvD2-Kq94dH4sCkM-38" edge="1">
          <mxGeometry width="160" relative="1" as="geometry">
            <mxPoint x="60" y="733" as="sourcePoint" />
            <mxPoint x="220" y="733" as="targetPoint" />
          </mxGeometry>
        </mxCell>
        <mxCell id="GvxSRBtj386_9GLS7rXv-4" value="1" style="endArrow=open;html=1;endSize=12;startArrow=diamondThin;startSize=14;startFill=1;edgeStyle=orthogonalEdgeStyle;align=left;verticalAlign=bottom;rounded=0;exitX=0;exitY=0.5;exitDx=0;exitDy=0;entryX=1;entryY=0.5;entryDx=0;entryDy=0;strokeColor=#000000;" parent="1" source="_IKKTvD2-Kq94dH4sCkM-47" target="_IKKTvD2-Kq94dH4sCkM-19" edge="1">
          <mxGeometry x="-1" y="3" relative="1" as="geometry">
            <mxPoint x="160" y="520" as="sourcePoint" />
            <mxPoint x="320" y="520" as="targetPoint" />
          </mxGeometry>
        </mxCell>
        <mxCell id="GvxSRBtj386_9GLS7rXv-5" value="Workshop&amp;lt;V extends Motorvehicle&amp;gt;" style="swimlane;fontStyle=1;align=center;verticalAlign=top;childLayout=stackLayout;horizontal=1;startSize=26;horizontalStack=0;resizeParent=1;resizeParentMax=0;resizeLast=0;collapsible=1;marginBottom=0;whiteSpace=wrap;html=1;" parent="1" vertex="1">
          <mxGeometry x="-480" y="510" width="210" height="170" as="geometry" />
        </mxCell>
        <mxCell id="GvxSRBtj386_9GLS7rXv-6" value="+ x : double&lt;br&gt;+ y : double&lt;br&gt;+ capacity : int&lt;br&gt;+ maxSize : int&lt;br&gt;+ storage : Arraylist&amp;lt;V&amp;lt;" style="text;strokeColor=none;fillColor=none;align=left;verticalAlign=top;spacingLeft=4;spacingRight=4;overflow=hidden;rotatable=0;points=[[0,0.5],[1,0.5]];portConstraint=eastwest;whiteSpace=wrap;html=1;" parent="GvxSRBtj386_9GLS7rXv-5" vertex="1">
          <mxGeometry y="26" width="210" height="84" as="geometry" />
        </mxCell>
        <mxCell id="GvxSRBtj386_9GLS7rXv-7" value="" style="line;strokeWidth=1;fillColor=none;align=left;verticalAlign=middle;spacingTop=-1;spacingLeft=3;spacingRight=3;rotatable=0;labelPosition=right;points=[];portConstraint=eastwest;strokeColor=inherit;" parent="GvxSRBtj386_9GLS7rXv-5" vertex="1">
          <mxGeometry y="110" width="210" height="8" as="geometry" />
        </mxCell>
        <mxCell id="GvxSRBtj386_9GLS7rXv-8" value="+ load(V): void&lt;br&gt;+ unload(V) : void" style="text;strokeColor=none;fillColor=none;align=left;verticalAlign=top;spacingLeft=4;spacingRight=4;overflow=hidden;rotatable=0;points=[[0,0.5],[1,0.5]];portConstraint=eastwest;whiteSpace=wrap;html=1;" parent="GvxSRBtj386_9GLS7rXv-5" vertex="1">
          <mxGeometry y="118" width="210" height="52" as="geometry" />
        </mxCell>
        <mxCell id="GvxSRBtj386_9GLS7rXv-10" value="1" style="endArrow=open;html=1;endSize=12;startArrow=diamondThin;startSize=14;startFill=1;edgeStyle=orthogonalEdgeStyle;align=left;verticalAlign=bottom;rounded=0;exitX=0.5;exitY=0;exitDx=0;exitDy=0;entryX=0;entryY=0.5;entryDx=0;entryDy=0;strokeColor=#000000;" parent="1" source="GvxSRBtj386_9GLS7rXv-5" target="_IKKTvD2-Kq94dH4sCkM-2" edge="1">
          <mxGeometry x="-1" y="3" relative="1" as="geometry">
            <mxPoint x="-460" y="410" as="sourcePoint" />
            <mxPoint x="70" y="150" as="targetPoint" />
            <Array as="points">
              <mxPoint x="-375" y="400" />
              <mxPoint x="71" y="400" />
              <mxPoint x="71" y="160" />
              <mxPoint x="160" y="160" />
              <mxPoint x="160" y="153" />
            </Array>
          </mxGeometry>
        </mxCell>
        <mxCell id="GvxSRBtj386_9GLS7rXv-12" value="CarController" style="swimlane;fontStyle=1;align=center;verticalAlign=top;childLayout=stackLayout;horizontal=1;startSize=26;horizontalStack=0;resizeParent=1;resizeParentMax=0;resizeLast=0;collapsible=1;marginBottom=0;whiteSpace=wrap;html=1;" parent="1" vertex="1">
          <mxGeometry x="930" y="80" width="180" height="220" as="geometry" />
        </mxCell>
        <mxCell id="GvxSRBtj386_9GLS7rXv-13" value="frame : CarView&lt;br&gt;cars : Arraylist&amp;lt;MotorVehicle&amp;gt;&lt;br&gt;-timer : Timer" style="text;strokeColor=none;fillColor=none;align=left;verticalAlign=top;spacingLeft=4;spacingRight=4;overflow=hidden;rotatable=0;points=[[0,0.5],[1,0.5]];portConstraint=eastwest;whiteSpace=wrap;html=1;" parent="GvxSRBtj386_9GLS7rXv-12" vertex="1">
          <mxGeometry y="26" width="180" height="74" as="geometry" />
        </mxCell>
        <mxCell id="GvxSRBtj386_9GLS7rXv-14" value="" style="line;strokeWidth=1;fillColor=none;align=left;verticalAlign=middle;spacingTop=-1;spacingLeft=3;spacingRight=3;rotatable=0;labelPosition=right;points=[];portConstraint=eastwest;strokeColor=inherit;" parent="GvxSRBtj386_9GLS7rXv-12" vertex="1">
          <mxGeometry y="100" width="180" height="8" as="geometry" />
        </mxCell>
        <mxCell id="GvxSRBtj386_9GLS7rXv-15" value="gas() : void&lt;br&gt;brake() : void&lt;br&gt;turboOn() : void&lt;br&gt;turboOff() : void&lt;br&gt;liftBed() : void&lt;br&gt;lowerBed() : void&lt;br&gt;handleWallCollision() : void" style="text;strokeColor=none;fillColor=none;align=left;verticalAlign=top;spacingLeft=4;spacingRight=4;overflow=hidden;rotatable=0;points=[[0,0.5],[1,0.5]];portConstraint=eastwest;whiteSpace=wrap;html=1;" parent="GvxSRBtj386_9GLS7rXv-12" vertex="1">
          <mxGeometry y="108" width="180" height="112" as="geometry" />
        </mxCell>
        <mxCell id="GvxSRBtj386_9GLS7rXv-20" value="&lt;b&gt;Timer&lt;/b&gt;" style="swimlane;fontStyle=0;childLayout=stackLayout;horizontal=1;startSize=26;fillColor=none;horizontalStack=0;resizeParent=1;resizeParentMax=0;resizeLast=0;collapsible=1;marginBottom=0;whiteSpace=wrap;html=1;" parent="1" vertex="1">
          <mxGeometry x="1000" y="-41" width="250" height="52" as="geometry" />
        </mxCell>
        <mxCell id="GvxSRBtj386_9GLS7rXv-21" value="+ ActionPerformed(ActionEvent): void" style="text;strokeColor=none;fillColor=none;align=left;verticalAlign=top;spacingLeft=4;spacingRight=4;overflow=hidden;rotatable=0;points=[[0,0.5],[1,0.5]];portConstraint=eastwest;whiteSpace=wrap;html=1;" parent="GvxSRBtj386_9GLS7rXv-20" vertex="1">
          <mxGeometry y="26" width="250" height="26" as="geometry" />
        </mxCell>
        <mxCell id="GvxSRBtj386_9GLS7rXv-25" value="«interface»&lt;br&gt;&lt;b&gt;ActionListener&lt;/b&gt;" style="html=1;whiteSpace=wrap;" parent="1" vertex="1">
          <mxGeometry x="1340" y="-150" width="110" height="50" as="geometry" />
        </mxCell>
        <mxCell id="GvxSRBtj386_9GLS7rXv-28" value="CarView" style="swimlane;fontStyle=1;align=center;verticalAlign=top;childLayout=stackLayout;horizontal=1;startSize=26;horizontalStack=0;resizeParent=1;resizeParentMax=0;resizeLast=0;collapsible=1;marginBottom=0;whiteSpace=wrap;html=1;" parent="1" vertex="1">
          <mxGeometry x="1210" y="80" width="230" height="204" as="geometry" />
        </mxCell>
        <mxCell id="GvxSRBtj386_9GLS7rXv-29" value="gasSpinner : JSpinner&lt;br&gt;gasButton : JButton&lt;br&gt;brakeButton : JButton&lt;br&gt;turboOnButton : JButton&lt;br&gt;turboOffButton : JButton&lt;br&gt;liftBedButton : JButton&lt;br&gt;lowerBedButton : JButton&lt;br&gt;startButton: JButton&lt;br&gt;stopButton: JButton" style="text;strokeColor=none;fillColor=none;align=left;verticalAlign=top;spacingLeft=4;spacingRight=4;overflow=hidden;rotatable=0;points=[[0,0.5],[1,0.5]];portConstraint=eastwest;whiteSpace=wrap;html=1;" parent="GvxSRBtj386_9GLS7rXv-28" vertex="1">
          <mxGeometry y="26" width="230" height="144" as="geometry" />
        </mxCell>
        <mxCell id="GvxSRBtj386_9GLS7rXv-30" value="" style="line;strokeWidth=1;fillColor=none;align=left;verticalAlign=middle;spacingTop=-1;spacingLeft=3;spacingRight=3;rotatable=0;labelPosition=right;points=[];portConstraint=eastwest;strokeColor=inherit;" parent="GvxSRBtj386_9GLS7rXv-28" vertex="1">
          <mxGeometry y="170" width="230" height="8" as="geometry" />
        </mxCell>
        <mxCell id="GvxSRBtj386_9GLS7rXv-31" value="+ actionPerformed(ActionEvent): void" style="text;strokeColor=none;fillColor=none;align=left;verticalAlign=top;spacingLeft=4;spacingRight=4;overflow=hidden;rotatable=0;points=[[0,0.5],[1,0.5]];portConstraint=eastwest;whiteSpace=wrap;html=1;" parent="GvxSRBtj386_9GLS7rXv-28" vertex="1">
          <mxGeometry y="178" width="230" height="26" as="geometry" />
        </mxCell>
        <mxCell id="GvxSRBtj386_9GLS7rXv-32" value="1" style="endArrow=open;html=1;endSize=12;startArrow=diamondThin;startSize=14;startFill=1;edgeStyle=orthogonalEdgeStyle;align=left;verticalAlign=bottom;rounded=0;entryX=1.016;entryY=0.875;entryDx=0;entryDy=0;entryPerimeter=0;exitX=0;exitY=0.5;exitDx=0;exitDy=0;strokeColor=#000000;" parent="1" source="GvxSRBtj386_9GLS7rXv-13" target="_IKKTvD2-Kq94dH4sCkM-2" edge="1">
          <mxGeometry x="-1" y="3" relative="1" as="geometry">
            <mxPoint x="820" y="190" as="sourcePoint" />
            <mxPoint x="980" y="190" as="targetPoint" />
          </mxGeometry>
        </mxCell>
        <mxCell id="GvxSRBtj386_9GLS7rXv-37" value="&lt;b&gt;ActionEvent&lt;/b&gt;" style="html=1;whiteSpace=wrap;" parent="1" vertex="1">
          <mxGeometry x="1490" y="-150" width="110" height="50" as="geometry" />
        </mxCell>
        <mxCell id="GvxSRBtj386_9GLS7rXv-38" value="" style="endArrow=block;dashed=1;endFill=0;endSize=12;html=1;rounded=0;exitX=0.5;exitY=0;exitDx=0;exitDy=0;entryX=0.25;entryY=1;entryDx=0;entryDy=0;strokeColor=#000000;" parent="1" source="GvxSRBtj386_9GLS7rXv-28" target="GvxSRBtj386_9GLS7rXv-25" edge="1">
          <mxGeometry width="160" relative="1" as="geometry">
            <mxPoint x="1230" y="70" as="sourcePoint" />
            <mxPoint x="1410" y="-90" as="targetPoint" />
          </mxGeometry>
        </mxCell>
        <mxCell id="GvxSRBtj386_9GLS7rXv-39" value="Use" style="endArrow=open;endSize=12;dashed=1;html=1;rounded=0;exitX=0.75;exitY=0;exitDx=0;exitDy=0;entryX=0.5;entryY=1;entryDx=0;entryDy=0;strokeColor=#000000;" parent="1" source="GvxSRBtj386_9GLS7rXv-28" target="GvxSRBtj386_9GLS7rXv-37" edge="1">
          <mxGeometry width="160" relative="1" as="geometry">
            <mxPoint x="1230" y="70" as="sourcePoint" />
            <mxPoint x="1390" y="70" as="targetPoint" />
          </mxGeometry>
        </mxCell>
        <mxCell id="GvxSRBtj386_9GLS7rXv-42" value="1" style="endArrow=open;html=1;endSize=12;startArrow=diamondThin;startSize=14;startFill=1;edgeStyle=orthogonalEdgeStyle;align=left;verticalAlign=bottom;rounded=0;exitX=1;exitY=0.5;exitDx=0;exitDy=0;entryX=-0.025;entryY=0.366;entryDx=0;entryDy=0;entryPerimeter=0;fillColor=#3399FF;strokeColor=#000000;" parent="1" source="GvxSRBtj386_9GLS7rXv-13" target="GvxSRBtj386_9GLS7rXv-29" edge="1">
          <mxGeometry x="-1" y="3" relative="1" as="geometry">
            <mxPoint x="1120" y="240" as="sourcePoint" />
            <mxPoint x="1280" y="240" as="targetPoint" />
            <Array as="points">
              <mxPoint x="1160" y="143" />
              <mxPoint x="1160" y="159" />
            </Array>
          </mxGeometry>
        </mxCell>
        <mxCell id="GvxSRBtj386_9GLS7rXv-43" value="Use" style="endArrow=open;endSize=12;dashed=1;html=1;rounded=0;exitX=-0.025;exitY=0.799;exitDx=0;exitDy=0;exitPerimeter=0;entryX=1.033;entryY=0.253;entryDx=0;entryDy=0;entryPerimeter=0;strokeColor=#000000;" parent="1" source="GvxSRBtj386_9GLS7rXv-29" target="GvxSRBtj386_9GLS7rXv-15" edge="1">
          <mxGeometry width="160" relative="1" as="geometry">
            <mxPoint x="1120" y="240" as="sourcePoint" />
            <mxPoint x="1280" y="240" as="targetPoint" />
          </mxGeometry>
        </mxCell>
        <mxCell id="GvxSRBtj386_9GLS7rXv-45" value="DrawPanel" style="swimlane;fontStyle=1;align=center;verticalAlign=top;childLayout=stackLayout;horizontal=1;startSize=26;horizontalStack=0;resizeParent=1;resizeParentMax=0;resizeLast=0;collapsible=1;marginBottom=0;whiteSpace=wrap;html=1;" parent="1" vertex="1">
          <mxGeometry x="1020" y="475" width="210" height="140" as="geometry" />
        </mxCell>
        <mxCell id="GvxSRBtj386_9GLS7rXv-46" value="- points: ArrayList&amp;lt;Point&amp;gt;&lt;br&gt;- images: ArrayList&amp;lt;BufferedImage&amp;gt;" style="text;strokeColor=none;fillColor=none;align=left;verticalAlign=top;spacingLeft=4;spacingRight=4;overflow=hidden;rotatable=0;points=[[0,0.5],[1,0.5]];portConstraint=eastwest;whiteSpace=wrap;html=1;" parent="GvxSRBtj386_9GLS7rXv-45" vertex="1">
          <mxGeometry y="26" width="210" height="64" as="geometry" />
        </mxCell>
        <mxCell id="GvxSRBtj386_9GLS7rXv-47" value="" style="line;strokeWidth=1;fillColor=none;align=left;verticalAlign=middle;spacingTop=-1;spacingLeft=3;spacingRight=3;rotatable=0;labelPosition=right;points=[];portConstraint=eastwest;strokeColor=inherit;" parent="GvxSRBtj386_9GLS7rXv-45" vertex="1">
          <mxGeometry y="90" width="210" height="8" as="geometry" />
        </mxCell>
        <mxCell id="GvxSRBtj386_9GLS7rXv-48" value="moveit(int, int, int) : void&lt;br&gt;# paintComponent(Graphics) : void" style="text;strokeColor=none;fillColor=none;align=left;verticalAlign=top;spacingLeft=4;spacingRight=4;overflow=hidden;rotatable=0;points=[[0,0.5],[1,0.5]];portConstraint=eastwest;whiteSpace=wrap;html=1;" parent="GvxSRBtj386_9GLS7rXv-45" vertex="1">
          <mxGeometry y="98" width="210" height="42" as="geometry" />
        </mxCell>
        <mxCell id="GvxSRBtj386_9GLS7rXv-54" value="Use" style="endArrow=open;endSize=12;dashed=1;html=1;rounded=0;exitX=0;exitY=0;exitDx=0;exitDy=0;entryX=1.021;entryY=1.031;entryDx=0;entryDy=0;entryPerimeter=0;strokeColor=#000000;" parent="1" source="GvxSRBtj386_9GLS7rXv-12" target="_IKKTvD2-Kq94dH4sCkM-11" edge="1">
          <mxGeometry width="160" relative="1" as="geometry">
            <mxPoint x="570" y="110" as="sourcePoint" />
            <mxPoint x="730" y="110" as="targetPoint" />
          </mxGeometry>
        </mxCell>
        <mxCell id="GvxSRBtj386_9GLS7rXv-56" value="Images" style="shape=folder;fontStyle=1;spacingTop=10;tabWidth=40;tabHeight=14;tabPosition=left;html=1;whiteSpace=wrap;" parent="1" vertex="1">
          <mxGeometry x="1370" y="540" width="70" height="50" as="geometry" />
        </mxCell>
        <mxCell id="GvxSRBtj386_9GLS7rXv-57" value="" style="endArrow=block;dashed=1;endFill=0;endSize=12;html=1;rounded=0;exitX=1.021;exitY=1.089;exitDx=0;exitDy=0;exitPerimeter=0;entryX=0;entryY=0;entryDx=0;entryDy=32;entryPerimeter=0;strokeColor=#000000;" parent="1" source="GvxSRBtj386_9GLS7rXv-46" target="GvxSRBtj386_9GLS7rXv-56" edge="1">
          <mxGeometry width="160" relative="1" as="geometry">
            <mxPoint x="1260" y="640" as="sourcePoint" />
            <mxPoint x="1420" y="640" as="targetPoint" />
          </mxGeometry>
        </mxCell>
        <mxCell id="GvxSRBtj386_9GLS7rXv-64" value="Use" style="endArrow=open;endSize=12;dashed=1;html=1;rounded=0;exitX=1;exitY=0.5;exitDx=0;exitDy=0;entryX=0;entryY=1;entryDx=0;entryDy=0;" parent="1" source="GvxSRBtj386_9GLS7rXv-20" target="GvxSRBtj386_9GLS7rXv-37" edge="1">
          <mxGeometry width="160" relative="1" as="geometry">
            <mxPoint x="1210" y="80" as="sourcePoint" />
            <mxPoint x="1370" y="80" as="targetPoint" />
          </mxGeometry>
        </mxCell>
        <mxCell id="GvxSRBtj386_9GLS7rXv-65" value="" style="endArrow=block;dashed=1;endFill=0;endSize=12;html=1;rounded=0;exitX=1;exitY=0;exitDx=0;exitDy=0;entryX=0;entryY=0.5;entryDx=0;entryDy=0;" parent="1" source="GvxSRBtj386_9GLS7rXv-20" target="GvxSRBtj386_9GLS7rXv-25" edge="1">
          <mxGeometry width="160" relative="1" as="geometry">
            <mxPoint x="1210" y="80" as="sourcePoint" />
            <mxPoint x="1370" y="80" as="targetPoint" />
          </mxGeometry>
        </mxCell>
        <mxCell id="GvxSRBtj386_9GLS7rXv-67" value="" style="endArrow=open;startArrow=circlePlus;endFill=0;startFill=0;endSize=8;html=1;rounded=0;exitX=0.5;exitY=0;exitDx=0;exitDy=0;entryX=0.263;entryY=1.024;entryDx=0;entryDy=0;entryPerimeter=0;" parent="1" source="GvxSRBtj386_9GLS7rXv-12" target="GvxSRBtj386_9GLS7rXv-21" edge="1">
          <mxGeometry width="160" relative="1" as="geometry">
            <mxPoint x="1210" y="80" as="sourcePoint" />
            <mxPoint x="1370" y="80" as="targetPoint" />
          </mxGeometry>
        </mxCell>
        <mxCell id="GvxSRBtj386_9GLS7rXv-71" value="1" style="endArrow=open;html=1;endSize=12;startArrow=diamondThin;startSize=14;startFill=1;edgeStyle=orthogonalEdgeStyle;align=left;verticalAlign=bottom;rounded=0;entryX=0.5;entryY=0;entryDx=0;entryDy=0;exitX=0.505;exitY=0.981;exitDx=0;exitDy=0;exitPerimeter=0;" parent="1" source="GvxSRBtj386_9GLS7rXv-31" target="GvxSRBtj386_9GLS7rXv-45" edge="1">
          <mxGeometry x="-1" y="3" relative="1" as="geometry">
            <mxPoint x="1200" y="470" as="sourcePoint" />
            <mxPoint x="1370" y="320" as="targetPoint" />
          </mxGeometry>
        </mxCell>
        <mxCell id="GvxSRBtj386_9GLS7rXv-72" value="Use" style="endArrow=open;endSize=12;dashed=1;html=1;rounded=0;exitX=0;exitY=0;exitDx=0;exitDy=0;entryX=1.023;entryY=1.014;entryDx=0;entryDy=0;entryPerimeter=0;" parent="1" source="GvxSRBtj386_9GLS7rXv-45" target="_IKKTvD2-Kq94dH4sCkM-4" edge="1">
          <mxGeometry width="160" relative="1" as="geometry">
            <mxPoint x="910" y="430" as="sourcePoint" />
            <mxPoint x="1070" y="430" as="targetPoint" />
          </mxGeometry>
        </mxCell>
        <mxCell id="N2L3TCfAoSrp4o9smLLv-3" value="1" style="endArrow=open;html=1;endSize=12;startArrow=diamondThin;startSize=14;startFill=1;edgeStyle=orthogonalEdgeStyle;align=left;verticalAlign=bottom;rounded=0;exitX=0;exitY=0.5;exitDx=0;exitDy=0;entryX=1;entryY=0.5;entryDx=0;entryDy=0;" edge="1" parent="1" source="GvxSRBtj386_9GLS7rXv-15" target="_IKKTvD2-Kq94dH4sCkM-42">
          <mxGeometry x="-1" y="3" relative="1" as="geometry">
            <mxPoint x="580" y="450" as="sourcePoint" />
            <mxPoint x="740" y="450" as="targetPoint" />
            <Array as="points">
              <mxPoint x="850" y="244" />
              <mxPoint x="850" y="440" />
              <mxPoint x="550" y="440" />
              <mxPoint x="550" y="877" />
            </Array>
          </mxGeometry>
        </mxCell>
        <mxCell id="N2L3TCfAoSrp4o9smLLv-4" value="1" style="endArrow=open;html=1;endSize=12;startArrow=diamondThin;startSize=14;startFill=1;edgeStyle=orthogonalEdgeStyle;align=left;verticalAlign=bottom;rounded=0;exitX=-0.034;exitY=0.381;exitDx=0;exitDy=0;exitPerimeter=0;entryX=0.75;entryY=0;entryDx=0;entryDy=0;" edge="1" parent="1" source="GvxSRBtj386_9GLS7rXv-15" target="_IKKTvD2-Kq94dH4sCkM-24">
          <mxGeometry x="-1" y="3" relative="1" as="geometry">
            <mxPoint x="580" y="450" as="sourcePoint" />
            <mxPoint x="730" y="450" as="targetPoint" />
            <Array as="points">
              <mxPoint x="820" y="231" />
              <mxPoint x="820" y="410" />
              <mxPoint x="170" y="410" />
            </Array>
          </mxGeometry>
        </mxCell>
        <mxCell id="N2L3TCfAoSrp4o9smLLv-6" value="1" style="endArrow=open;html=1;endSize=12;startArrow=diamondThin;startSize=14;startFill=1;edgeStyle=orthogonalEdgeStyle;align=left;verticalAlign=bottom;rounded=0;exitX=0.276;exitY=1.065;exitDx=0;exitDy=0;exitPerimeter=0;entryX=0.649;entryY=1.096;entryDx=0;entryDy=0;entryPerimeter=0;" edge="1" parent="1" source="GvxSRBtj386_9GLS7rXv-15" target="_IKKTvD2-Kq94dH4sCkM-23">
          <mxGeometry x="-1" y="3" relative="1" as="geometry">
            <mxPoint x="570" y="600" as="sourcePoint" />
            <mxPoint x="730" y="850" as="targetPoint" />
            <Array as="points">
              <mxPoint x="980" y="970" />
              <mxPoint x="-160" y="970" />
              <mxPoint x="-160" y="850" />
              <mxPoint x="-156" y="850" />
            </Array>
          </mxGeometry>
        </mxCell>
      </root>
    </mxGraphModel>
  </diagram>
</mxfile>
